Renegades is a 1989 crime film starring Lou Diamond Phillips and Kiefer Sutherland. Floyd Red Crow Westerman debuted in this film as "Red Crow", Hank Storm's father.

Buster McHenry (Sutherland) is as an undercover agent for the Philadelphia police. His mission involves him in a robbery. Buster gets shot but Hank Storm (Phillips), a Lakota Sioux, helps Buster. Since Hank wants a spear in the possession of the criminals that Buster is after, they team up.

Screens:
 
http://img265.imageshack.us/img265/2948/renegadesscreens.png
 
http://www.imdb.com/title/tt0098188/combined

**Please note, I was able to find this movie by searching the net. It was done awhile back by a source unknown to me apparently encoded from a television broadcast. The quality is decent and watchable, but not A+ for sure. I am sharing it for the content, it’s a really good film. Hope you like it. 

Media Info:

General
Complete name: Renegades (1989) Kiefer Sutherland, Lou Diamond Phillips TV.avi
Format: AVI
Format/Info: Audio Video Interleave
File size: 686 MiB
Duration: 1h 37mn
Overall bit rate: 982 Kbps

Video
ID: 0
Format: MPEG-4 Visual
Format settings, BVOP: No
Format settings, QPel: No
Format settings, GMC: No warppoints
Format settings, Matrix: Default (H.263)
Codec ID: DX50
Codec ID/Hint: DivX 5
Duration: 1h 37mn
Bit rate: 780 Kbps
Width: 720 pixels
Height: 480 pixels
Display aspect ratio: 3:2
Frame rate: 25.000 fps
Standard: NTSC
Color space: YUV
Chroma subsampling: 4:2:0
Bit depth: 8 bits
Scan type: Progressive
Compression mode: Lossy
Bits/(Pixel*Frame): 0.090
Stream size: 545 MiB (79%)
Writing library: DivX 5.2.1 (WaffleDay) (UTC 2004-09-0

Audio
ID: 1
Format: MPEG Audio
Format version: Version 1
Format profile: Layer 3
Codec ID: 55
Codec ID/Hint: MP3
Duration: 1h 37mn
Bit rate mode: Constant
Bit rate: 192 Kbps
Channel(s): 2 channels
Sampling rate: 44.1 KHz
Compression mode: Lossy
Delay relative to video: 26ms
Stream size: 134 MiB (20%)
Alignment: Split accross interleaves
Interleave, duration: 40 ms (1.00 video frame)
Title: Audio Stream

MUCH Peace n luv to my friends at 1337x and blazinseedboxes


ENJOY!!

**tyvm and all due respect to the original uploader all those who care enough to share


Torrent originally uploaded by kawliga55		
